HIERARCHY
ROOT hip
{
  OFFSET 0 0 0
  CHANNELS 6 Xposition Yposition Zposition Zrotation Yrotation Xrotation
  JOINT abdomen
  {
    OFFSET 0 20.6881 -0.73152
    CHANNELS 3 Zrotation Xrotation Yrotation
    JOINT chest
    {
      OFFSET 0 11.7043 -0.48768
      CHANNELS 3 Zrotation Xrotation Yrotation
      JOINT neck
      {
        OFFSET 0 22.1894 -2.19456
        CHANNELS 3 Zrotation Xrotation Yrotation
        JOINT head
        {
          OFFSET -0.24384 7.07133 1.2192
          CHANNELS 3 Zrotation Xrotation Yrotation
          JOINT leftEye
          {
            OFFSET 4.14528 8.04674 8.04672
            CHANNELS 3 Zrotation Xrotation Yrotation
            End Site
            {
              OFFSET 1 0 0
            }
          }
          JOINT rightEye
          {
            OFFSET -3.6576 8.04674 8.04672
            CHANNELS 3 Zrotation Xrotation Yrotation
            End Site
            {
              OFFSET 1 0 0
            }
          }
        }
      }
      JOINT rCollar
      {
        OFFSET -2.68224 19.2634 -4.8768
        CHANNELS 3 Zrotation Xrotation Yrotation
        JOINT rShldr
        {
          OFFSET -8.77824 -1.95073 1.46304
          CHANNELS 3 Zrotation Xrotation Yrotation
          JOINT rForeArm
          {
            OFFSET -28.1742 -1.7115 0.48768
            CHANNELS 3 Zrotation Xrotation Yrotation
            JOINT rHand
            {
              OFFSET -22.5879 0.773209 7.07136
              CHANNELS 3 Zrotation Xrotation Yrotation
              JOINT rThumb1
              {
                OFFSET -1.2192 -0.487915 3.41376
                CHANNELS 3 Zrotation Xrotation Yrotation
                JOINT rThumb2
                {
                  OFFSET -3.37035 -0.52449 3.41376
                  CHANNELS 3 Zrotation Xrotation Yrotation
                  End Site
                  {
                    OFFSET -1.78271 -1.18214 1.43049
                  }
                }
              }
              JOINT rIndex1
              {
                OFFSET -7.75947 0.938293 5.60832
                CHANNELS 3 Zrotation Xrotation Yrotation
                JOINT rIndex2
                {
                  OFFSET -2.54057 -0.884171 1.56538
                  CHANNELS 3 Zrotation Xrotation Yrotation
                  End Site
                  {
                    OFFSET -1.62519 -0.234802 1.16502
                  }
                }
              }
              JOINT rMid1
              {
                OFFSET -8.24714 1.18213 3.41376
                CHANNELS 3 Zrotation Xrotation Yrotation
                JOINT rMid2
                {
                  OFFSET -3.10165 -0.590103 1.0647
                  CHANNELS 3 Zrotation Xrotation Yrotation
                  End Site
                  {
                    OFFSET -2.48547 -0.328903 0.83742
                  }
                }
              }
              JOINT rRing1
              {
                OFFSET -8.82822 0.546677 1.51678
                CHANNELS 3 Zrotation Xrotation Yrotation
                JOINT rRing2
                {
                  OFFSET -2.60934 -0.819778 -0.0198488
                  CHANNELS 3 Zrotation Xrotation Yrotation
                  End Site
                  {
                    OFFSET -2.33842 -0.294052 0.168128
                  }
                }
              }
              JOINT rPinky1
              {
                OFFSET -8.27202 -0.0477905 -0.4584
                CHANNELS 3 Zrotation Xrotation Yrotation
                JOINT rPinky2
                {
                  OFFSET -1.82734 -0.647385 -0.700984
                  CHANNELS 3 Zrotation Xrotation Yrotation
                  End Site
                  {
                    OFFSET -1.69225 -0.51767 -0.607171
                  }
                }
              }
            }
          }
        }
      }
      JOINT lCollar
      {
        OFFSET 2.68224 19.2634 -4.8768
        CHANNELS 3 Zrotation Xrotation Yrotation
        JOINT lShldr
        {
          OFFSET 8.77824 -1.95073 1.46304
          CHANNELS 3 Zrotation Xrotation Yrotation
          JOINT lForeArm
          {
            OFFSET 28.1742 -1.7115 0.48768
            CHANNELS 3 Zrotation Xrotation Yrotation
            JOINT lHand
            {
              OFFSET 22.5879 0.773209 7.07136
              CHANNELS 3 Zrotation Xrotation Yrotation
              JOINT lThumb1
              {
                OFFSET 1.2192 -0.487915 3.41376
                CHANNELS 3 Zrotation Xrotation Yrotation
                JOINT lThumb2
                {
                  OFFSET 3.37035 -0.52449 3.41376
                  CHANNELS 3 Zrotation Xrotation Yrotation
                  End Site
                  {
                    OFFSET 1.78271 -1.18214 1.43049
                  }
                }
              }
              JOINT lIndex1
              {
                OFFSET 7.75947 0.938293 5.60832
                CHANNELS 3 Zrotation Xrotation Yrotation
                JOINT lIndex2
                {
                  OFFSET 2.54057 -0.884171 1.56538
                  CHANNELS 3 Zrotation Xrotation Yrotation
                  End Site
                  {
                    OFFSET 1.62519 -0.234802 1.16502
                  }
                }
              }
              JOINT lMid1
              {
                OFFSET 8.24714 1.18213 3.41376
                CHANNELS 3 Zrotation Xrotation Yrotation
                JOINT lMid2
                {
                  OFFSET 3.10165 -0.590103 1.0647
                  CHANNELS 3 Zrotation Xrotation Yrotation
                  End Site
                  {
                    OFFSET 2.48547 -0.328903 0.83742
                  }
                }
              }
              JOINT lRing1
              {
                OFFSET 8.82822 0.546677 1.51678
                CHANNELS 3 Zrotation Xrotation Yrotation
                JOINT lRing2
                {
                  OFFSET 2.60934 -0.819778 -0.0198488
                  CHANNELS 3 Zrotation Xrotation Yrotation
                  End Site
                  {
                    OFFSET 2.33842 -0.294052 0.168128
                  }
                }
              }
              JOINT lPinky1
              {
                OFFSET 8.27202 -0.0477905 -0.4584
                CHANNELS 3 Zrotation Xrotation Yrotation
                JOINT lPinky2
                {
                  OFFSET 1.82734 -0.647385 -0.700984
                  CHANNELS 3 Zrotation Xrotation Yrotation
                  End Site
                  {
                    OFFSET 1.69225 -0.51767 -0.607171
                  }
                }
              }
            }
          }
        }
      }
    }
  }
  JOINT rButtock
  {
    OFFSET -8.77824 4.35084 1.2192
    CHANNELS 3 Zrotation Xrotation Yrotation
    JOINT rThigh
    {
      OFFSET 0 -1.70687 -2.19456
      CHANNELS 3 Zrotation Xrotation Yrotation
      JOINT rShin
      {
        OFFSET 0 -36.8199 0.73152
        CHANNELS 3 Zrotation Xrotation Yrotation
        JOINT rFoot
        {
          OFFSET 0.73152 -45.1104 -5.12064
          CHANNELS 3 Zrotation Xrotation Yrotation
          End Site
          {
            OFFSET -1.1221 -3.69964 12.103
          }
        }
      }
    }
  }
  JOINT lButtock
  {
    OFFSET 8.77824 4.35084 1.2192
    CHANNELS 3 Zrotation Xrotation Yrotation
    JOINT lThigh
    {
      OFFSET 0 -1.70687 -2.19456
      CHANNELS 3 Zrotation Xrotation Yrotation
      JOINT lShin
      {
        OFFSET 0 -36.8199 0.73152
        CHANNELS 3 Zrotation Xrotation Yrotation
        JOINT lFoot
        {
          OFFSET -0.73152 -45.1104 -5.12064
          CHANNELS 3 Zrotation Xrotation Yrotation
          End Site
          {
            OFFSET 1.1221 -3.69964 12.103
          }
        }
      }
    }
  }
}
MOTION
Frames:	4
Frame Time:	0.00833333
3.38507 84.9173 -169.073 0.0 0.0 0.0 -0.140625 -0.000295018 -0.00400525 -0.0387668 -0.000394555 -0.00671562 5.22345e-15 0.0 -3.56086e-24 1.56108e-14 3.18055e-15 0.0 -0.0 0.0 0.0 -0.0 0.0 0.0 2.63267e-15 1.55301e-18 1.49089e-16 5.68346e-14 3.41661e-16 9.93923e-16 9.42836e-13 -2.76708e-13 -2.22639e-14 1.07602e-11 3.00711e-13 2.22639e-14 2.53845e-11 4.639e-14 9.54166e-15 4.38241e-11 7.95139e-14 2.14687e-14 2.53888e-11 4.81059e-14 -3.18055e-15 7.73091 5.47488 0.417314 2.53852e-11 4.67144e-14 1.27222e-14 2.90554 0.965183 0.102902 2.5393e-11 4.6615e-14 1.27222e-14 10.2786 0.731801 0.0259123 2.5378e-11 4.6118e-14 2.22639e-14 2.22167 -0.733487 -0.20892 2.53591e-15 1.16475e-18 -1.49089e-16 5.33265e-14 4.41053e-16 -5.96354e-16 9.38214e-13 2.85057e-13 0.0 1.07603e-11 -2.66794e-13 1.59028e-14 2.53799e-11 3.44654e-14 2.22639e-14 4.38404e-11 6.04305e-14 2.62396e-14 2.53768e-11 3.57812e-14 2.22639e-14 -7.73091 5.47488 -0.417314 2.53798e-11 3.48867e-14 1.90833e-14 -2.90554 0.965183 -0.102902 2.53711e-11 3.49861e-14 1.59028e-14 -10.2786 0.731801 -0.0259123 2.53854e-11 3.49861e-14 3.18055e-15 -2.22167 -0.733487 0.20892 -2.03217e-16 0.0 -3.88251e-19 0.415448 -2.89234 -0.0363694 -0.00657576 -0.31396 -0.0578451 -0.521681 3.20536 0.125418 2.03217e-16 0.0 3.88251e-19 -0.629356 -3.43714 0.0497312 0.00497792 0.672913 0.0432308 0.523148 2.76331 -0.116512
2.85636 83.6178 -170.057 -3.3179 3.6696 2.2237 0.346024 0.130146 0.581369 1.3991 -0.560228 0.180013 1.6779 -1.73002 -0.163179 -3.09533 0.530352 -0.91912 -0.0 0.0 0.0 -0.0 0.0 0.0 -2.77629e-14 -5.53822e-15 8.39516e-15 20.7722 1.52533 -1.94058 -4.2064 -1.90855 6.57303 0.0030837 -1.23253 -0.173076 2.35575e-10 2.5174e-10 1.3083e-10 4.05997e-10 4.37365e-10 2.27115e-10 2.35579e-10 2.51742e-10 1.30819e-10 7.73091 5.47488 0.417314 2.35575e-10 2.5174e-10 1.30833e-10 2.90554 0.965183 0.102902 2.35583e-10 2.51741e-10 1.30832e-10 10.2786 0.731801 0.0259123 2.3557e-10 2.51741e-10 1.30842e-10 2.22167 -0.733487 -0.20892 -2.78575e-14 -5.53919e-15 8.15367e-15 -22.3826 7.13349 0.525104 4.02838 -1.79387 -6.33095 -0.00788984 -1.97085 0.276394 2.89738e-10 3.45471e-11 1.86378e-10 4.99522e-10 5.80011e-11 3.23828e-10 2.89735e-10 3.45477e-11 1.86381e-10 -7.73091 5.47488 -0.417314 2.89738e-10 3.4547e-11 1.86376e-10 -2.90554 0.965183 -0.102902 2.89729e-10 3.45474e-11 1.86373e-10 -10.2786 0.731801 -0.0259123 2.89742e-10 3.4548e-11 1.86363e-10 -2.22167 -0.733487 0.20892 -2.03217e-16 0.0 -3.88251e-19 0.288886 -5.42712 -0.439754 0.00222071 6.58774 0.0607085 -0.89251 0.708505 -5.28428 2.03217e-16 0.0 3.88251e-19 0.407727 -5.87203 -0.242874 -0.00561325 7.20848 -0.0640893 0.774377 0.224161 4.1591
2.8483 83.6177 -170.056 -3.3442 3.6366 2.2256 0.869211 0.269048 1.16496 2.92179 -1.14838 0.367192 3.44239 -3.56308 -0.315172 -6.3592 1.0907 -1.85022 -0.0 0.0 0.0 -0.0 0.0 0.0 -6.24758e-14 -1.15904e-14 1.73843e-14 42.8322 3.17135 -3.98109 -8.17532 -3.83881 13.5371 -0.00175601 -2.53068 -0.355639 4.82947e-10 5.13797e-10 2.72301e-10 8.32325e-10 8.92753e-10 4.72731e-10 4.82951e-10 5.138e-10 2.72292e-10 7.73091 5.47488 0.417314 4.82947e-10 5.13798e-10 2.72304e-10 2.90554 0.965183 0.102902 4.82955e-10 5.13799e-10 2.72303e-10 10.2786 0.731801 0.0259123 4.82943e-10 5.138e-10 2.72312e-10 2.22167 -0.733487 -0.20892 -6.25701e-14 -1.15922e-14 1.72042e-14 -46.2014 14.6246 1.11908 7.8603 -3.61831 -13.0459 0.00448439 -4.04987 0.569067 5.98589e-10 8.4931e-11 3.9333e-10 1.03197e-09 1.43194e-10 6.83482e-10 5.98586e-10 8.49308e-11 3.93337e-10 -7.73091 5.47488 -0.417314 5.98589e-10 8.49303e-11 3.9333e-10 -2.90554 0.965183 -0.102902 5.98579e-10 8.4931e-11 3.93327e-10 -10.2786 0.731801 -0.0259123 5.98591e-10 8.49322e-11 3.93319e-10 -2.22167 -0.733487 0.20892 -2.03217e-16 0.0 -3.88251e-19 0.116843 -8.10549 -0.869526 -0.0203253 13.8832 0.190763 -1.794 -1.8884 -11.0078 2.03217e-16 0.0 3.88251e-19 1.47745 -8.44507 -0.555096 0.0104484 14.1179 -0.182005 1.45086 -2.43092 8.68798
2.8495 83.6196 -170.053 -3.3475 3.6562 2.2046 1.31133 0.390865 1.75216 4.28579 -1.67983 0.553682 5.00405 -5.18989 -0.491328 -9.23495 1.58942 -2.7583 -0.0 0.0 0.0 -0.0 0.0 0.0 -8.85541e-14 -1.66178e-14 2.48873e-14 62.6268 4.55497 -5.83818 -11.3294 -5.42486 19.8005 -0.0131271 -3.69744 -0.52019 6.55956e-10 7.55126e-10 3.9247e-10 1.13034e-09 1.31194e-09 6.81302e-10 6.55959e-10 7.55129e-10 3.92463e-10 7.73091 5.47488 0.417314 6.55956e-10 7.55127e-10 3.92473e-10 2.90554 0.965183 0.102902 6.55963e-10 7.55128e-10 3.92472e-10 10.2786 0.731801 0.0259123 6.55953e-10 7.5513e-10 3.9248e-10 2.22167 -0.733487 -0.20892 -8.86442e-14 -1.66199e-14 2.47592e-14 -67.5646 21.393 1.67882 10.9161 -5.11932 -19.0625 0.0336322 -5.912 0.833122 8.18455e-10 1.03573e-10 5.59088e-10 1.41088e-09 1.73883e-10 9.7143e-10 8.18451e-10 1.03572e-10 5.59099e-10 -7.73091 5.47488 -0.417314 8.18455e-10 1.03571e-10 5.5909e-10 -2.90554 0.965183 -0.102902 8.18445e-10 1.03572e-10 5.59087e-10 -10.2786 0.731801 -0.0259123 8.18455e-10 1.03574e-10 5.59081e-10 -2.22167 -0.733487 0.20892 -2.03217e-16 0.0 -3.88251e-19 -0.0729996 -10.4947 -1.26181 -0.0701821 20.3909 0.316441 -3.0328 -4.10809 -16.1447 2.03217e-16 0.0 3.88251e-19 2.40607 -10.7408 -0.83878 0.0504914 20.2794 -0.295522 2.40701 -4.73321 12.7542
